#N canvas 1772 234 450 300 10;
#X obj 129 139 ctlout;
#X obj 67 84 bng 15 250 50 0 empty empty empty 17 7 0 10 -262144 -1
-1;
#X msg 63 128 0;
#X msg 97 124 127;
#X obj 66 102 delay 250;
#X obj 142 35 loadbang;
#X obj 192 84 f \$1;
#X obj 55 43 inlet;
#X connect 1 0 4 0;
#X connect 1 0 3 0;
#X connect 2 0 0 0;
#X connect 3 0 0 0;
#X connect 4 0 2 0;
#X connect 5 0 6 0;
#X connect 6 0 0 1;
#X connect 7 0 1 0;
