#N canvas 1046 51 450 300 10;
#X obj 160 19 ctlin;
#X obj 163 130 route;
#X obj 211 47 f \$1;
#X obj 230 18 loadbang;
#X obj 157 49 swap;
#X obj 157 105 pack;
#X obj 161 152 / 127;
#X obj 161 176 outlet;
#X obj 51 133 ctlout;
#X floatatom 67 100 5 0 0 0 - - -, f 5;
#X floatatom 25 98 5 0 0 0 - - -, f 5;
#X obj 67 71 f \$1;
#X obj 76 32 loadbang;
#X obj 16 51 * 127;
#X obj 18 28 inlet;
#X floatatom 248 105 5 0 0 0 - - -, f 5;
#X obj 67 50 t b b;
#X msg 33 77 0;
#X obj 114 87 delay 20;
#X connect 0 0 4 0;
#X connect 0 1 4 1;
#X connect 0 1 15 0;
#X connect 1 0 6 0;
#X connect 2 0 1 1;
#X connect 3 0 2 0;
#X connect 4 0 5 0;
#X connect 4 1 5 1;
#X connect 5 0 1 0;
#X connect 6 0 7 0;
#X connect 9 0 8 1;
#X connect 10 0 8 0;
#X connect 11 0 9 0;
#X connect 12 0 16 0;
#X connect 13 0 10 0;
#X connect 14 0 13 0;
#X connect 16 0 17 0;
#X connect 16 0 18 0;
#X connect 16 1 11 0;
#X connect 17 0 10 0;
#X connect 18 0 17 0;
