#N canvas 613 372 1343 1045 10;
#N canvas 1959 572 519 560 masterloop_rec 0;
#X obj 22 24 inlet;
#X obj 22 46 change;
#X obj 22 72 t f f;
#X obj 141 69 r~ audioIn;
#N canvas 0 51 450 300 limiter 0;
#X obj 41 12 inlet~;
#X msg 138 75 limit 100;
#X obj 138 11 loadbang;
#X obj 41 50 z~ 64;
#X obj 41 159 *~;
#X obj 41 190 outlet~;
#X obj 138 103 limiter~ 10;
#X connect 0 0 3 0;
#X connect 0 0 6 0;
#X connect 1 0 6 0;
#X connect 2 0 1 0;
#X connect 3 0 4 0;
#X connect 4 0 5 0;
#X connect 6 0 4 1;
#X restore 146 164 pd limiter;
#X obj 141 222 tabwrite~ masterloop;
#X obj 22 144 s ml_down;
#X obj 41 123 s ml_up;
#X obj 41 201 r ml_up;
#X obj 22 246 timer;
#X obj 23 311 / 1000;
#X obj 22 419 s ml_len;
#X obj 23 335 t f b;
#X obj 50 355 samplerate~;
#X obj 23 377 *;
#N canvas 327 255 450 300 into_blocks 0;
#X obj 173 101 % 64;
#X obj 146 81 t f f;
#X obj 146 121 -;
#X obj 146 59 int;
#X obj 146 17 inlet;
#X obj 146 167 outlet;
#X text 238 67 to be a multiple of the block size.;
#X text 238 49 Force the length of the tables;
#X text 134 261 Pierre Massat \, Guitar extended \, 2013;
#X connect 0 0 2 1;
#X connect 1 0 2 0;
#X connect 1 1 0 0;
#X connect 2 0 5 0;
#X connect 3 0 1 0;
#X connect 4 0 3 0;
#X restore 22 399 pd into_blocks;
#X text 290 226 when start recording;
#X text 293 241 turn of playback;
#X text 293 252 clear master loop;
#X text 293 267 clear slave loops;
#X obj 214 400 r ml_len;
#X text 348 417 when pressed up send len;
#X text 352 435 resize master and slave loops;
#X text 352 447 turn master loop on;
#X obj 23 269 t f f;
#X obj 73 292 s ml_len_ms;
#X text 319 64 ml_up ml_down ml_len ml_len_ms;
#X obj 22 102 sel 1 0;
#X obj 39 171 t b b b;
#X msg 115 196 start 0;
#X obj 254 160 r ml_up;
#X msg 247 193 stop;
#X msg 214 306 \; ml_on 0 \; sl_on 0 \; clearsloop bang \;;
#X msg 213 430 \; ml_on 1 \;;
#X connect 0 0 1 0;
#X connect 1 0 2 0;
#X connect 2 0 27 0;
#X connect 3 0 4 0;
#X connect 4 0 5 0;
#X connect 8 0 9 1;
#X connect 9 0 24 0;
#X connect 10 0 12 0;
#X connect 12 0 14 0;
#X connect 12 1 13 0;
#X connect 13 0 14 1;
#X connect 14 0 15 0;
#X connect 15 0 11 0;
#X connect 20 0 33 0;
#X connect 24 0 10 0;
#X connect 24 1 25 0;
#X connect 27 0 6 0;
#X connect 27 0 28 0;
#X connect 27 1 7 0;
#X connect 28 0 9 0;
#X connect 28 0 29 0;
#X connect 28 2 32 0;
#X connect 29 0 5 0;
#X connect 30 0 31 0;
#X connect 31 0 5 0;
#X restore 172 170 pd masterloop_rec;
#X obj 172 129 tgl 35 0 empty empty masterloop_rec 0 -8 0 15 -258113
-1 -1 0 1;
#N canvas 1815 351 457 480 masterloop_play 0;
#X obj 35 9 inlet;
#X obj 34 29 t f f;
#X obj 38 50 sel 1 0;
#X msg 40 111 bang;
#X msg 101 103 stop;
#X obj 27 338 tabplay~ masterloop;
#X obj 38 383 *~;
#X obj 144 154 spigot;
#X obj 144 185 s newcycle;
#X obj 139 208 r newcycle;
#X obj 139 280 line~;
#X obj 204 233 delay;
#X obj 225 170 r ml_len_ms;
#X obj 221 13 r ml_up;
#X text 246 238 try and remove clicks;
#X obj 37 411 outlet~;
#X obj 217 311 flashled 41;
#X obj 218 347 flashled 42;
#X obj 219 373 flashled 43;
#X obj 222 398 flashled 44;
#X obj 222 419 flashled 45;
#X obj 32 196 f;
#X obj 79 159 r ml_len;
#X msg 34 234 0 \$1;
#X obj 329 34 r ml_len_ms;
#X obj 300 109 bng 15 250 50 0 empty empty empty 17 7 0 10 -262144
-1 -1;
#X msg 285 53 bang;
#X obj 341 129 t b;
#X obj 292 76 delay;
#X obj 32 77 t b b;
#X msg 139 239 1 50;
#X msg 205 255 0 50;
#X obj 225 192 - 50;
#X connect 0 0 1 0;
#X connect 1 0 2 0;
#X connect 1 1 7 1;
#X connect 2 0 29 0;
#X connect 2 1 4 0;
#X connect 3 0 26 0;
#X connect 3 0 21 0;
#X connect 3 0 7 0;
#X connect 4 0 5 0;
#X connect 5 0 6 0;
#X connect 6 0 15 0;
#X connect 7 0 5 0;
#X connect 7 0 8 0;
#X connect 9 0 30 0;
#X connect 9 0 11 0;
#X connect 9 0 16 0;
#X connect 9 0 17 0;
#X connect 9 0 18 0;
#X connect 9 0 19 0;
#X connect 9 0 20 0;
#X connect 10 0 6 1;
#X connect 11 0 31 0;
#X connect 12 0 32 0;
#X connect 13 0 26 0;
#X connect 21 0 23 0;
#X connect 22 0 21 1;
#X connect 23 0 5 0;
#X connect 24 0 28 1;
#X connect 25 0 27 0;
#X connect 25 0 3 0;
#X connect 25 0 7 0;
#X connect 26 0 28 0;
#X connect 27 0 28 0;
#X connect 28 0 25 0;
#X connect 29 1 3 0;
#X connect 30 0 10 0;
#X connect 31 0 10 0;
#X connect 32 0 11 1;
#X restore 33 180 pd masterloop_play;
#X obj 31 130 tgl 35 0 empty ml_on masterloop_play 0 -8 0 12 -260097
-1 -1 1 1;
#X obj 925 908 dac~;
#X obj 70 462 slaveloop_recplay;
#X obj 180 411 tgl 35 0 empty sl_rec slaveloop_rec 0 -8 0 15 -258113
-1 -1 0 1;
#X obj 39 412 tgl 35 0 empty sl_on slaveloop_play 0 -8 0 12 -260097
-1 -1 1 1;
#X obj 271 426 bng 15 250 50 0 empty empty RESET 0 -7 0 10 -262144
-1 -1;
#X obj 77 138 led 32;
#X obj 77 496 *~;
#X obj 34 232 *~;
#X obj 189 655 tgl 35 0 empty sl_rec slaveloop_rec 0 -8 0 15 -258113
-1 -1 0 1;
#X obj 48 656 tgl 35 0 empty sl_on slaveloop_play 0 -8 0 12 -260097
-1 -1 1 1;
#X obj 280 670 bng 15 250 50 0 empty empty RESET 0 -7 0 10 -262144
-1 -1;
#X obj 81 737 *~;
#X obj 635 258 tgl 35 0 empty sl_rec slaveloop_rec 0 -8 0 15 -258113
-1 -1 0 1;
#X obj 494 259 tgl 35 0 empty sl_on slaveloop_play 0 -8 0 12 -260097
-1 -1 1 1;
#X obj 726 273 bng 15 250 50 0 empty empty RESET 0 -7 0 10 -262144
-1 -1;
#X obj 527 340 *~;
#X obj 286 375 sel 1;
#X obj 284 615 sel 1;
#X obj 767 228 sel 1;
#X obj 22 22 adc~;
#X obj 215 138 led 64;
#X obj 223 419 led 65;
#X obj 83 425 led 33;
#X obj 92 669 led 34;
#X obj 232 662 led 66;
#X obj 538 272 led 35;
#X obj 679 265 led 67;
#X obj 285 351 led 49;
#X obj 283 591 led 50;
#X obj 766 204 led 51;
#N canvas 1765 319 450 300 array 0;
#N canvas 0 50 450 300 (subpatch) 0;
#X array masterloop 2.28e+06 float 2;
#X coords 0 1 2.28e+06 -1 200 140 1;
#X restore 168 61 graph;
#X restore 75 22 pd array;
#X obj 629 665 tgl 35 0 empty sl_rec slaveloop_rec 0 -8 0 15 -258113
-1 -1 0 1;
#X obj 488 666 tgl 35 0 empty sl_on slaveloop_play 0 -8 0 12 -260097
-1 -1 1 1;
#X obj 720 680 bng 15 250 50 0 empty empty RESET 0 -7 0 10 -262144
-1 -1;
#X obj 521 747 *~;
#X obj 761 635 sel 1;
#X obj 532 679 led 36;
#X obj 673 672 led 68;
#X obj 760 611 led 52;
#X obj 1063 223 tgl 35 0 empty sl_rec slaveloop_rec 0 -8 0 15 -258113
-1 -1 0 1;
#X obj 922 224 tgl 35 0 empty sl_on slaveloop_play 0 -8 0 12 -260097
-1 -1 1 1;
#X obj 1154 238 bng 15 250 50 0 empty empty RESET 0 -7 0 10 -262144
-1 -1;
#X obj 955 305 *~;
#X obj 1195 193 sel 1;
#X obj 1194 169 led 53;
#X obj 1107 230 led 69;
#X obj 966 237 led 37;
#X obj 79 706 slaveloop_recplay;
#X obj 525 309 slaveloop_recplay;
#X obj 519 716 slaveloop_recplay;
#X obj 953 274 slaveloop_recplay;
#X obj 27 67 send~ audioIn;
#X obj 922 875 freeverb~;
#X msg 1028 806 wet \$1;
#X msg 1086 804 dry \$1;
#X obj 1031 751 hsl 128 15 0 1 0 0 empty empty empty -2 -8 0 10 -262144
-1 -1 200 1;
#N canvas 1 80 450 300 inv 0;
#X obj 154 69 inlet;
#X obj 154 179 outlet;
#X msg 154 124 1;
#X obj 154 97 t b f;
#X obj 154 151 -;
#X connect 0 0 3 0;
#X connect 2 0 4 0;
#X connect 3 0 2 0;
#X connect 3 1 4 1;
#X connect 4 0 1 0;
#X restore 1073 786 pd inv;
#X floatatom 1134 804 5 0 0 0 - - -, f 5;
#X text 1019 735 dry;
#X text 1144 734 wet;
#X floatatom 1035 780 5 0 0 0 - - -, f 5;
#X msg 1231 817 freeze \$1;
#X obj 1237 789 tgl 15 0 empty empty empty 17 7 0 10 -262144 -1 -1
0 1;
#X obj 1223 726 led 39;
#X obj 1253 757 sel 1;
#X text 353 35 Mark IJzerman 2018 mono in \, stereo out.;
#X text 149 88 1;
#X text 148 362 2;
#X text 156 619 3;
#X text 581 209 4;
#X text 597 617 5;
#X text 1025 173 6;
#X text 1023 659 reverb;
#X obj 856 852 fad 6;
#X obj 138 58 send~ drySignal;
#X obj 762 851 r~ drySignal;
#X obj 808 873 *~;
#X obj 761 786 catch~ audioOutL;
#X obj 878 784 catch~ audioOutR;
#X obj 54 205 fad 0;
#X obj 192 475 fad 1;
#X obj 201 719 fad 2;
#X obj 647 322 fad 3;
#X obj 641 729 fad 4;
#X obj 1075 287 fad 5;
#X obj 1027 698 fad 7;
#X obj 1101 666 loadbang;
#X msg 1101 710 0;
#X obj 47 553 throw~ audioOutL;
#X obj 172 554 throw~ audioOutR;
#X obj 130 524 fad 17;
#X obj 12 292 throw~ audioOutL;
#X obj 137 293 throw~ audioOutR;
#X obj 80 244 fad 16;
#X obj 74 826 throw~ audioOutL;
#X obj 199 827 throw~ audioOutR;
#X obj 157 797 fad 18;
#X obj 76 525 pan;
#X obj 499 397 throw~ audioOutL;
#X obj 624 398 throw~ audioOutR;
#X obj 582 368 fad 19;
#X obj 468 814 throw~ audioOutL;
#X obj 593 815 throw~ audioOutR;
#X obj 934 362 throw~ audioOutL;
#X obj 1059 363 throw~ audioOutR;
#X obj 550 785 fad 20;
#X obj 1018 333 fad 21;
#X obj 103 799 pan;
#X obj 528 370 pan;
#X obj 497 787 pan;
#X obj 963 335 pan;
#X obj 41 263 pan;
#X connect 1 0 0 0;
#X connect 1 0 24 0;
#X connect 2 0 11 0;
#X connect 3 0 2 0;
#X connect 3 0 9 0;
#X connect 5 0 10 0;
#X connect 5 1 6 0;
#X connect 5 2 7 0;
#X connect 6 0 5 1;
#X connect 6 0 25 0;
#X connect 7 0 5 0;
#X connect 7 0 26 0;
#X connect 8 0 5 2;
#X connect 9 0 3 0;
#X connect 10 0 101 0;
#X connect 11 0 115 0;
#X connect 12 0 28 0;
#X connect 12 0 51 1;
#X connect 13 0 27 0;
#X connect 13 0 51 0;
#X connect 14 0 51 2;
#X connect 15 0 111 0;
#X connect 16 0 30 0;
#X connect 16 0 52 1;
#X connect 17 0 29 0;
#X connect 17 0 52 0;
#X connect 18 0 52 2;
#X connect 19 0 112 0;
#X connect 20 0 8 0;
#X connect 21 0 14 0;
#X connect 22 0 18 0;
#X connect 23 0 55 0;
#X connect 23 0 78 0;
#X connect 23 1 55 0;
#X connect 23 1 78 0;
#X connect 24 0 1 0;
#X connect 25 0 6 0;
#X connect 26 0 7 0;
#X connect 27 0 13 0;
#X connect 28 0 12 0;
#X connect 29 0 17 0;
#X connect 30 0 16 0;
#X connect 31 0 20 0;
#X connect 32 0 21 0;
#X connect 33 0 22 0;
#X connect 35 0 41 0;
#X connect 35 0 53 1;
#X connect 36 0 40 0;
#X connect 36 0 53 0;
#X connect 37 0 53 2;
#X connect 38 0 113 0;
#X connect 39 0 37 0;
#X connect 40 0 36 0;
#X connect 41 0 35 0;
#X connect 42 0 39 0;
#X connect 43 0 49 0;
#X connect 43 0 54 1;
#X connect 44 0 50 0;
#X connect 44 0 54 0;
#X connect 45 0 54 2;
#X connect 46 0 114 0;
#X connect 47 0 45 0;
#X connect 48 0 47 0;
#X connect 49 0 43 0;
#X connect 50 0 44 0;
#X connect 51 0 15 0;
#X connect 51 1 12 0;
#X connect 51 2 13 0;
#X connect 52 0 19 0;
#X connect 52 1 16 0;
#X connect 52 2 17 0;
#X connect 53 0 38 0;
#X connect 53 1 35 0;
#X connect 53 2 36 0;
#X connect 54 0 46 0;
#X connect 54 1 43 0;
#X connect 54 2 44 0;
#X connect 56 0 4 0;
#X connect 56 1 4 1;
#X connect 57 0 56 0;
#X connect 58 0 56 0;
#X connect 59 0 57 0;
#X connect 59 0 60 0;
#X connect 59 0 64 0;
#X connect 60 0 58 0;
#X connect 60 0 61 0;
#X connect 65 0 56 0;
#X connect 66 0 65 0;
#X connect 66 0 67 0;
#X connect 67 0 68 0;
#X connect 68 0 66 0;
#X connect 77 0 80 1;
#X connect 79 0 80 0;
#X connect 80 0 4 0;
#X connect 80 0 4 1;
#X connect 81 0 56 0;
#X connect 82 0 56 1;
#X connect 83 0 11 1;
#X connect 84 0 10 1;
#X connect 85 0 15 1;
#X connect 86 0 19 1;
#X connect 87 0 38 1;
#X connect 88 0 46 1;
#X connect 89 0 59 0;
#X connect 90 0 91 0;
#X connect 91 0 59 0;
#X connect 94 0 101 1;
#X connect 97 0 115 1;
#X connect 100 0 111 1;
#X connect 101 0 92 0;
#X connect 101 1 93 0;
#X connect 104 0 112 1;
#X connect 109 0 113 1;
#X connect 110 0 114 1;
#X connect 111 0 98 0;
#X connect 111 1 99 0;
#X connect 112 0 102 0;
#X connect 112 1 103 0;
#X connect 113 0 105 0;
#X connect 113 1 106 0;
#X connect 114 0 107 0;
#X connect 114 1 108 0;
#X connect 115 0 95 0;
#X connect 115 1 96 0;
