#N canvas 841 156 1343 1045 10;
#X declare -stdlib zexy -stdpath zexy;
#N canvas 1911 540 519 560 masterloop_rec 0;
#X obj 22 24 inlet;
#X obj 22 46 change;
#X obj 22 72 t f f;
#X obj 141 69 r~ audioIn;
#X obj 141 222 tabwrite~ masterloop;
#X obj 22 144 s ml_down;
#X obj 41 123 s ml_up;
#X obj 41 201 r ml_up;
#X obj 22 246 timer;
#X obj 23 311 / 1000;
#X obj 22 419 s ml_len;
#X obj 23 335 t f b;
#X obj 50 355 samplerate~;
#X obj 23 377 *;
#N canvas 327 255 450 300 into_blocks 0;
#X obj 173 101 % 64;
#X obj 146 81 t f f;
#X obj 146 121 -;
#X obj 146 59 int;
#X obj 146 17 inlet;
#X obj 146 167 outlet;
#X text 238 67 to be a multiple of the block size.;
#X text 238 49 Force the length of the tables;
#X text 134 261 Pierre Massat \, Guitar extended \, 2013;
#X connect 0 0 2 1;
#X connect 1 0 2 0;
#X connect 1 1 0 0;
#X connect 2 0 5 0;
#X connect 3 0 1 0;
#X connect 4 0 3 0;
#X restore 22 399 pd into_blocks;
#X text 290 226 when start recording;
#X text 293 241 turn of playback;
#X text 293 252 clear master loop;
#X text 293 267 clear slave loops;
#X obj 214 400 r ml_len;
#X text 348 417 when pressed up send len;
#X text 352 435 resize master and slave loops;
#X text 352 447 turn master loop on;
#X obj 23 269 t f f;
#X obj 73 292 s ml_len_ms;
#X text 319 64 ml_up ml_down ml_len ml_len_ms;
#X obj 22 102 sel 1 0;
#X obj 39 171 t b b b;
#X msg 115 196 start 0;
#X obj 254 160 r ml_up;
#X msg 247 193 stop;
#X msg 214 306 \; ml_on 0 \; sl_on 0 \; clearsloop bang \;;
#X msg 213 430 \; ml_on 1 \;;
#X connect 0 0 1 0;
#X connect 1 0 2 0;
#X connect 2 0 26 0;
#X connect 3 0 4 0;
#X connect 7 0 8 1;
#X connect 8 0 23 0;
#X connect 9 0 11 0;
#X connect 11 0 13 0;
#X connect 11 1 12 0;
#X connect 12 0 13 1;
#X connect 13 0 14 0;
#X connect 14 0 10 0;
#X connect 19 0 32 0;
#X connect 23 0 9 0;
#X connect 23 1 24 0;
#X connect 26 0 5 0;
#X connect 26 0 27 0;
#X connect 26 1 6 0;
#X connect 27 0 8 0;
#X connect 27 0 28 0;
#X connect 27 2 31 0;
#X connect 28 0 4 0;
#X connect 29 0 30 0;
#X connect 30 0 4 0;
#X restore 172 170 pd masterloop_rec;
#X obj 172 129 tgl 35 0 empty empty masterloop_rec 0 -8 0 15 -258113
-1 -1 0 1;
#N canvas 1803 343 457 480 masterloop_play 0;
#X obj 35 9 inlet;
#X obj 34 29 t f f;
#X obj 38 50 sel 1 0;
#X msg 40 111 bang;
#X msg 101 103 stop;
#X obj 27 338 tabplay~ masterloop;
#X obj 38 383 *~;
#X obj 144 154 spigot;
#X obj 144 185 s newcycle;
#X obj 139 208 r newcycle;
#X obj 139 280 line~;
#X obj 204 233 delay;
#X obj 225 170 r ml_len_ms;
#X obj 221 13 r ml_up;
#X text 246 238 try and remove clicks;
#X obj 37 411 outlet~;
#X obj 217 311 flashled 41;
#X obj 218 347 flashled 42;
#X obj 219 373 flashled 43;
#X obj 222 398 flashled 44;
#X obj 222 419 flashled 45;
#X obj 32 196 f;
#X obj 79 159 r ml_len;
#X msg 34 234 0 \$1;
#X obj 329 34 r ml_len_ms;
#X obj 300 109 bng 15 250 50 0 empty empty empty 17 7 0 10 -262144
-1 -1;
#X msg 285 53 bang;
#X obj 341 129 t b;
#X obj 292 76 delay;
#X obj 32 77 t b b;
#X msg 139 239 1 50;
#X msg 205 255 0 50;
#X obj 225 192 - 50;
#X connect 0 0 1 0;
#X connect 1 0 2 0;
#X connect 1 1 7 1;
#X connect 2 0 29 0;
#X connect 2 1 4 0;
#X connect 3 0 26 0;
#X connect 3 0 21 0;
#X connect 3 0 7 0;
#X connect 4 0 5 0;
#X connect 5 0 6 0;
#X connect 6 0 15 0;
#X connect 7 0 5 0;
#X connect 7 0 8 0;
#X connect 9 0 30 0;
#X connect 9 0 11 0;
#X connect 9 0 16 0;
#X connect 9 0 17 0;
#X connect 9 0 18 0;
#X connect 9 0 19 0;
#X connect 9 0 20 0;
#X connect 10 0 6 1;
#X connect 11 0 31 0;
#X connect 12 0 32 0;
#X connect 13 0 26 0;
#X connect 21 0 23 0;
#X connect 22 0 21 1;
#X connect 23 0 5 0;
#X connect 24 0 28 1;
#X connect 25 0 27 0;
#X connect 25 0 3 0;
#X connect 25 0 7 0;
#X connect 26 0 28 0;
#X connect 27 0 28 0;
#X connect 28 0 25 0;
#X connect 29 1 3 0;
#X connect 30 0 10 0;
#X connect 31 0 10 0;
#X connect 32 0 11 1;
#X restore 33 180 pd masterloop_play;
#X obj 31 130 tgl 35 0 empty ml_on masterloop_play 0 -8 0 12 -260097
-1 -1 0 1;
#X obj 925 908 dac~;
#X obj 180 411 tgl 35 0 empty sl_rec slaveloop_rec 0 -8 0 15 -258113
-1 -1 0 1;
#X obj 39 412 tgl 35 0 empty sl_on slaveloop_play 0 -8 0 12 -260097
-1 -1 0 1;
#X obj 271 426 bng 15 250 50 0 empty empty RESET 0 -7 0 10 -262144
-1 -1;
#X obj 77 138 led 32;
#X obj 73 492 *~;
#X obj 38 229 *~;
#X obj 189 655 tgl 35 0 empty sl_rec slaveloop_rec 0 -8 0 15 -258113
-1 -1 0 1;
#X obj 48 656 tgl 35 0 empty sl_on slaveloop_play 0 -8 0 12 -260097
-1 -1 0 1;
#X obj 280 670 bng 15 250 50 0 empty empty RESET 0 -7 0 10 -262144
-1 -1;
#X obj 81 737 *~;
#X obj 635 258 tgl 35 0 empty sl_rec slaveloop_rec 0 -8 0 15 -258113
-1 -1 0 1;
#X obj 494 259 tgl 35 0 empty sl_on slaveloop_play 0 -8 0 12 -260097
-1 -1 0 1;
#X obj 726 273 bng 15 250 50 0 empty empty RESET 0 -7 0 10 -262144
-1 -1;
#X obj 527 340 *~;
#X obj 22 22 adc~;
#X obj 215 138 led 64;
#X obj 223 419 led 65;
#X obj 83 425 led 33;
#X obj 92 669 led 34;
#X obj 232 662 led 66;
#X obj 538 272 led 35;
#X obj 680 268 led 67;
#N canvas 2077 326 450 300 array 0;
#N canvas 0 50 450 300 (subpatch) 0;
#X array masterloop 2.28e+06 float 2;
#X coords 0 1 2.28e+06 -1 200 140 1;
#X restore 157 78 graph;
#X restore 75 22 pd array;
#X obj 629 665 tgl 35 0 empty sl_rec slaveloop_rec 0 -8 0 15 -258113
-1 -1 0 1;
#X obj 488 666 tgl 35 0 empty sl_on slaveloop_play 0 -8 0 12 -260097
-1 -1 0 1;
#X obj 720 680 bng 15 250 50 0 empty empty RESET 0 -7 0 10 -262144
-1 -1;
#X obj 521 747 *~;
#X obj 532 679 led 36;
#X obj 673 672 led 68;
#X obj 1056 222 tgl 35 0 empty sl_rec slaveloop_rec 0 -8 0 15 -258113
-1 -1 0 1;
#X obj 922 224 tgl 35 0 empty sl_on slaveloop_play 0 -8 0 12 -260097
-1 -1 0 1;
#X obj 1154 238 bng 15 250 50 0 empty empty RESET 0 -7 0 10 -262144
-1 -1;
#X obj 955 305 *~;
#X obj 1107 230 led 69;
#X obj 966 237 led 37;
#X obj 27 67 send~ audioIn;
#X obj 922 875 freeverb~;
#X msg 1028 806 wet \$1;
#X msg 1086 804 dry \$1;
#X obj 1031 751 hsl 128 15 0 1 0 0 empty empty empty -2 -8 0 10 -262144
-1 -1 0 1;
#N canvas 1 80 450 300 inv 0;
#X obj 154 69 inlet;
#X obj 154 179 outlet;
#X msg 154 124 1;
#X obj 154 97 t b f;
#X obj 154 151 -;
#X connect 0 0 3 0;
#X connect 2 0 4 0;
#X connect 3 0 2 0;
#X connect 3 1 4 1;
#X connect 4 0 1 0;
#X restore 1073 786 pd inv;
#X floatatom 1134 804 5 0 0 0 - - -, f 5;
#X text 1019 735 dry;
#X text 1144 734 wet;
#X floatatom 1035 780 5 0 0 0 - - -, f 5;
#X msg 1231 817 freeze \$1;
#X obj 1237 789 tgl 15 0 empty empty empty 17 7 0 10 -262144 -1 -1
0 1;
#X obj 1223 726 led 39;
#X obj 1253 757 sel 1;
#X text 353 35 Mark IJzerman 2018 mono in \, stereo out.;
#X text 149 88 1;
#X text 148 362 2;
#X text 156 619 3;
#X text 581 209 4;
#X text 597 617 5;
#X text 1025 173 6;
#X text 1023 659 reverb;
#X obj 856 852 fad 6;
#X obj 138 58 send~ drySignal;
#X obj 762 851 r~ drySignal;
#X obj 808 873 *~;
#X obj 761 786 catch~ audioOutL;
#X obj 878 784 catch~ audioOutR;
#X obj 192 475 fad 1;
#X obj 201 719 fad 2;
#X obj 647 322 fad 3;
#X obj 641 729 fad 4;
#X obj 1075 287 fad 5;
#X obj 1027 698 fad 7;
#X obj 1101 666 loadbang;
#X msg 1101 710 0;
#X obj 47 553 throw~ audioOutL;
#X obj 172 554 throw~ audioOutR;
#X obj 130 524 fad 17;
#X obj 12 292 throw~ audioOutL;
#X obj 137 293 throw~ audioOutR;
#X obj 80 244 fad 16;
#X obj 74 826 throw~ audioOutL;
#X obj 199 827 throw~ audioOutR;
#X obj 157 797 fad 18;
#X obj 499 397 throw~ audioOutL;
#X obj 624 398 throw~ audioOutR;
#X obj 582 368 fad 19;
#X obj 468 814 throw~ audioOutL;
#X obj 593 815 throw~ audioOutR;
#X obj 934 362 throw~ audioOutL;
#X obj 1059 363 throw~ audioOutR;
#X obj 550 785 fad 20;
#X obj 1018 333 fad 21;
#X obj 103 799 panner;
#X obj 528 370 panner;
#X obj 497 787 panner;
#X obj 963 335 panner;
#X obj 41 263 panner;
#X obj 52 527 panner;
#X obj 903 19 led 44;
#X obj 761 150 % 6;
#X obj 761 86 sel 1;
#X obj 762 108 f;
#X obj 794 108 + 1;
#X obj 781 238 print;
#X obj 833 148 % 6;
#X obj 834 106 f;
#X obj 866 106 + 1;
#X obj 833 84 sel 0;
#X obj 759 174 pack f 0;
#X obj 831 172 pack f 1;
#X text 760 20 for foot pedal;
#X obj 931 151 tgl 15 0 empty empty empty 17 7 0 10 -262144 -1 -1 0
1;
#X obj 931 128 spigot;
#X msg 968 81 0;
#X msg 906 97 1;
#X obj 905 38 t b b b;
#X obj 979 47 loadbang;
#X obj 891 73 delay 250;
#X obj 932 171 != 1;
#X obj 275 93 r footrec-0;
#X msg 757 198 \; footrec-\$1 \$2;
#X obj 311 405 r footrec-1;
#X obj 322 640 r footrec-2;
#X obj 752 291 r footrec-3;
#X obj 759 647 r footrec-4;
#X obj 1197 209 r footrec-5;
#N canvas 939 457 1288 779 saveArrays 1;
#X obj 82 32 ctlin;
#X msg 183 96 3;
#X obj 182 72 loadbang;
#N canvas 1850 459 450 300 mij.stream 0;
#X obj 30 44 inlet;
#X obj 138 42 inlet;
#X obj 136 92 route clear;
#X obj 66 230 outlet;
#X obj 199 129 route float;
#X obj 34 121 list append;
#X obj 51 182 list split \$1;
#X connect 0 0 5 0;
#X connect 1 0 2 0;
#X connect 2 0 5 1;
#X connect 2 1 4 0;
#X connect 4 0 6 1;
#X connect 5 0 6 0;
#X connect 6 0 3 0;
#X connect 6 0 5 1;
#X connect 6 2 5 1;
#X restore 91 121 pd mij.stream;
#X obj 83 73 swap;
#X obj 86 94 stripnote;
#X text 104 13 SAVING;
#X text 191 157 (trackleft - set - >);
#X obj 193 580 soundfiler;
#X msg 195 536 write -wave \$1 \$2;
#X obj 85 170 t b b;
#X obj 52 219 pack f f f f f f;
#X obj 33 295 t b a;
#X msg 241 389 \$2__\$1;
#X obj 240 368 pack f s;
#X obj 56 409 sel 1;
#X obj 65 347 t f f;
#X msg 27 455 masterloop;
#X msg 121 453 \$1-slaveloop;
#X obj 189 506 pack s s;
#X msg 49 242 /media/root/UNTITLED/\$1-\$2-\$3__\$4-\$5-\$6;
#X obj 537 248 f;
#X obj 557 227 r ml_len;
#X obj 301 330 cyclone/tosymbol;
#X obj 230 480 cyclone/tosymbol;
#X obj 152 198 time;
#X obj 32 321 cyclone/uzi 6;
#X obj 87 149 cyclone/match 62 60 58;
#X obj 60 269 t a b;
#X msg 538 274 \; masterloop resize \$1 \; 2-slaveloop resize \$1 \;
3-slaveloop resize \$1 \; 4-slaveloop resize \$1 \; 5-slaveloop resize
\$1 \; 6-slaveloop resize \$1 \;;
#X obj 52 194 date;
#X obj 409 66 declare -stdlib zexy -stdpath zexy;
#X connect 0 0 4 0;
#X connect 0 1 4 1;
#X connect 1 0 3 1;
#X connect 2 0 1 0;
#X connect 3 0 27 0;
#X connect 4 0 5 0;
#X connect 4 1 5 1;
#X connect 5 0 3 0;
#X connect 9 0 8 0;
#X connect 10 0 30 0;
#X connect 10 1 25 0;
#X connect 11 0 20 0;
#X connect 12 0 26 0;
#X connect 12 1 23 0;
#X connect 13 0 19 0;
#X connect 14 0 13 0;
#X connect 15 0 17 0;
#X connect 15 1 18 0;
#X connect 16 0 14 0;
#X connect 16 1 15 0;
#X connect 17 0 24 0;
#X connect 18 0 24 0;
#X connect 19 0 9 0;
#X connect 20 0 28 0;
#X connect 21 0 29 0;
#X connect 22 0 21 1;
#X connect 23 0 14 1;
#X connect 24 0 19 1;
#X connect 25 0 11 3;
#X connect 25 1 11 4;
#X connect 25 2 11 5;
#X connect 26 2 16 0;
#X connect 27 0 10 0;
#X connect 28 0 12 0;
#X connect 28 1 21 0;
#X connect 30 0 11 0;
#X connect 30 1 11 1;
#X connect 30 2 11 2;
#X restore 144 23 pd saveArrays;
#X obj 70 462 slaveloop_recplay 2;
#X obj 79 706 slaveloop_recplay 3;
#X obj 525 309 slaveloop_recplay 4;
#X obj 519 716 slaveloop_recplay 5;
#X obj 954 275 slaveloop_recplay 6;
#X obj 93 208 fad 0;
#X floatatom 155 224 5 0 0 0 - - -, f 5;
#X connect 1 0 0 0;
#X connect 1 0 20 0;
#X connect 2 0 10 0;
#X connect 3 0 2 0;
#X connect 3 0 8 0;
#X connect 5 0 21 0;
#X connect 5 0 129 1;
#X connect 6 0 22 0;
#X connect 6 0 129 0;
#X connect 7 0 129 2;
#X connect 8 0 3 0;
#X connect 9 0 99 0;
#X connect 10 0 98 0;
#X connect 11 0 24 0;
#X connect 11 0 130 1;
#X connect 12 0 23 0;
#X connect 12 0 130 0;
#X connect 13 0 130 2;
#X connect 14 0 94 0;
#X connect 15 0 26 0;
#X connect 15 0 131 1;
#X connect 16 0 25 0;
#X connect 16 0 131 0;
#X connect 17 0 131 2;
#X connect 18 0 95 0;
#X connect 19 0 40 0;
#X connect 19 0 63 0;
#X connect 19 1 40 0;
#X connect 19 1 63 0;
#X connect 20 0 1 0;
#X connect 21 0 5 0;
#X connect 22 0 6 0;
#X connect 23 0 12 0;
#X connect 24 0 11 0;
#X connect 25 0 16 0;
#X connect 26 0 15 0;
#X connect 28 0 33 0;
#X connect 28 0 132 1;
#X connect 29 0 32 0;
#X connect 29 0 132 0;
#X connect 30 0 132 2;
#X connect 31 0 96 0;
#X connect 32 0 29 0;
#X connect 33 0 28 0;
#X connect 34 0 38 0;
#X connect 34 0 133 1;
#X connect 35 0 39 0;
#X connect 35 0 133 0;
#X connect 36 0 133 2;
#X connect 37 0 97 0;
#X connect 38 0 34 0;
#X connect 39 0 35 0;
#X connect 41 0 4 0;
#X connect 41 1 4 1;
#X connect 42 0 41 0;
#X connect 43 0 41 0;
#X connect 44 0 42 0;
#X connect 44 0 45 0;
#X connect 44 0 49 0;
#X connect 45 0 43 0;
#X connect 45 0 46 0;
#X connect 50 0 41 0;
#X connect 51 0 50 0;
#X connect 51 0 52 0;
#X connect 52 0 53 0;
#X connect 53 0 51 0;
#X connect 62 0 65 1;
#X connect 64 0 65 0;
#X connect 65 0 4 0;
#X connect 65 0 4 1;
#X connect 66 0 41 0;
#X connect 67 0 41 1;
#X connect 68 0 9 1;
#X connect 69 0 14 1;
#X connect 70 0 18 1;
#X connect 71 0 31 1;
#X connect 72 0 37 1;
#X connect 73 0 44 0;
#X connect 74 0 75 0;
#X connect 75 0 44 0;
#X connect 78 0 99 1;
#X connect 81 0 98 1;
#X connect 84 0 94 1;
#X connect 87 0 95 1;
#X connect 92 0 96 1;
#X connect 93 0 97 1;
#X connect 94 0 82 0;
#X connect 94 1 83 0;
#X connect 95 0 85 0;
#X connect 95 1 86 0;
#X connect 96 0 88 0;
#X connect 96 1 89 0;
#X connect 97 0 90 0;
#X connect 97 1 91 0;
#X connect 98 0 79 0;
#X connect 98 1 80 0;
#X connect 99 0 76 0;
#X connect 99 1 77 0;
#X connect 100 0 117 0;
#X connect 101 0 110 0;
#X connect 102 0 103 0;
#X connect 103 0 101 0;
#X connect 103 0 104 0;
#X connect 104 0 103 1;
#X connect 106 0 111 0;
#X connect 107 0 106 0;
#X connect 107 0 108 0;
#X connect 108 0 107 1;
#X connect 109 0 107 0;
#X connect 110 0 122 0;
#X connect 111 0 122 0;
#X connect 113 0 120 0;
#X connect 114 0 113 0;
#X connect 115 0 114 1;
#X connect 116 0 114 1;
#X connect 117 0 119 0;
#X connect 117 1 115 0;
#X connect 117 2 114 0;
#X connect 118 0 116 0;
#X connect 119 0 116 0;
#X connect 120 0 102 0;
#X connect 120 0 109 0;
#X connect 121 0 1 0;
#X connect 122 0 105 0;
#X connect 123 0 5 0;
#X connect 124 0 11 0;
#X connect 125 0 15 0;
#X connect 126 0 28 0;
#X connect 127 0 34 0;
#X connect 129 0 9 0;
#X connect 129 1 5 0;
#X connect 129 2 6 0;
#X connect 130 0 14 0;
#X connect 130 1 11 0;
#X connect 130 2 12 0;
#X connect 131 0 18 0;
#X connect 131 1 15 0;
#X connect 131 2 16 0;
#X connect 132 0 31 0;
#X connect 132 1 28 0;
#X connect 132 2 29 0;
#X connect 133 0 37 0;
#X connect 133 1 34 0;
#X connect 133 2 35 0;
#X connect 134 0 10 1;
#X connect 135 0 10 1;
