#N canvas 936 204 1343 1045 10;
#X declare -path mmb;
#X declare -path cyclone;
#X declare -path RE-abs;
#N canvas 1911 540 519 560 masterloop_rec 0;
#X obj 22 24 inlet;
#X obj 22 46 change;
#X obj 22 72 t f f;
#X obj 141 69 r~ audioIn;
#X obj 141 222 tabwrite~ masterloop;
#X obj 22 144 s ml_down;
#X obj 41 123 s ml_up;
#X obj 41 201 r ml_up;
#X obj 22 246 timer;
#X obj 23 311 / 1000;
#X obj 22 419 s ml_len;
#X obj 23 335 t f b;
#X obj 50 355 samplerate~;
#X obj 23 377 *;
#N canvas 327 255 450 300 into_blocks 0;
#X obj 173 101 % 64;
#X obj 146 81 t f f;
#X obj 146 121 -;
#X obj 146 59 int;
#X obj 146 17 inlet;
#X obj 146 167 outlet;
#X text 238 67 to be a multiple of the block size.;
#X text 238 49 Force the length of the tables;
#X text 134 261 Pierre Massat \, Guitar extended \, 2013;
#X connect 0 0 2 1;
#X connect 1 0 2 0;
#X connect 1 1 0 0;
#X connect 2 0 5 0;
#X connect 3 0 1 0;
#X connect 4 0 3 0;
#X restore 22 399 pd into_blocks;
#X text 290 226 when start recording;
#X text 293 241 turn of playback;
#X text 293 252 clear master loop;
#X text 293 267 clear slave loops;
#X obj 214 400 r ml_len;
#X text 348 417 when pressed up send len;
#X text 352 435 resize master and slave loops;
#X text 352 447 turn master loop on;
#X obj 23 269 t f f;
#X obj 73 292 s ml_len_ms;
#X text 319 64 ml_up ml_down ml_len ml_len_ms;
#X obj 22 102 sel 1 0;
#X obj 39 171 t b b b;
#X msg 115 196 start 0;
#X obj 254 160 r ml_up;
#X msg 247 193 stop;
#X msg 214 306 \; ml_on 0 \; sl_on 0 \; clearsloop bang \;;
#X msg 213 430 \; ml_on 1 \;;
#X connect 0 0 1 0;
#X connect 1 0 2 0;
#X connect 2 0 26 0;
#X connect 3 0 4 0;
#X connect 7 0 8 1;
#X connect 8 0 23 0;
#X connect 9 0 11 0;
#X connect 11 0 13 0;
#X connect 11 1 12 0;
#X connect 12 0 13 1;
#X connect 13 0 14 0;
#X connect 14 0 10 0;
#X connect 19 0 32 0;
#X connect 23 0 9 0;
#X connect 23 1 24 0;
#X connect 26 0 5 0;
#X connect 26 0 27 0;
#X connect 26 1 6 0;
#X connect 27 0 8 0;
#X connect 27 0 28 0;
#X connect 27 2 31 0;
#X connect 28 0 4 0;
#X connect 29 0 30 0;
#X connect 30 0 4 0;
#X restore 172 170 pd masterloop_rec;
#X obj 172 129 tgl 35 0 empty empty masterloop_rec 0 -8 0 15 -258113
-1 -1 0 1;
#N canvas 1803 343 457 480 masterloop_play 1;
#X obj 35 9 inlet;
#X obj 34 29 t f f;
#X obj 38 50 sel 1 0;
#X msg 40 111 bang;
#X msg 101 103 stop;
#X obj 27 338 tabplay~ masterloop;
#X obj 38 383 *~;
#X obj 144 154 spigot;
#X obj 144 185 s newcycle;
#X obj 139 208 r newcycle;
#X obj 139 280 line~;
#X obj 204 233 delay;
#X obj 225 170 r ml_len_ms;
#X obj 221 13 r ml_up;
#X text 246 238 try and remove clicks;
#X obj 37 411 outlet~;
#X obj 217 311 flashled 41;
#X obj 218 347 flashled 42;
#X obj 219 373 flashled 43;
#X obj 222 398 flashled 44;
#X obj 222 419 flashled 45;
#X obj 23 221 f;
#X obj 50 168 r ml_len;
#X msg 23 275 0 \$1;
#X obj 329 34 r ml_len_ms;
#X obj 300 109 bng 15 250 50 0 empty empty empty 17 7 0 10 -262144
-1 -1;
#X msg 285 53 bang;
#X obj 341 129 t b;
#X obj 292 76 delay;
#X obj 32 77 t b b;
#X msg 139 239 1 50;
#X msg 205 255 0 50;
#X obj 225 192 - 50;
#X connect 0 0 1 0;
#X connect 1 0 2 0;
#X connect 1 1 7 1;
#X connect 2 0 29 0;
#X connect 2 1 4 0;
#X connect 3 0 26 0;
#X connect 3 0 21 0;
#X connect 3 0 7 0;
#X connect 4 0 5 0;
#X connect 5 0 6 0;
#X connect 6 0 15 0;
#X connect 7 0 8 0;
#X connect 7 0 5 0;
#X connect 9 0 30 0;
#X connect 9 0 11 0;
#X connect 9 0 16 0;
#X connect 9 0 17 0;
#X connect 9 0 18 0;
#X connect 9 0 19 0;
#X connect 9 0 20 0;
#X connect 10 0 6 1;
#X connect 11 0 31 0;
#X connect 12 0 32 0;
#X connect 13 0 26 0;
#X connect 21 0 23 0;
#X connect 22 0 21 1;
#X connect 23 0 5 0;
#X connect 24 0 28 1;
#X connect 25 0 27 0;
#X connect 25 0 3 0;
#X connect 25 0 7 0;
#X connect 26 0 28 0;
#X connect 27 0 28 0;
#X connect 28 0 25 0;
#X connect 29 1 3 0;
#X connect 30 0 10 0;
#X connect 31 0 10 0;
#X connect 32 0 11 1;
#X restore 33 180 pd masterloop_play;
#X obj 31 130 tgl 35 0 empty ml_on masterloop_play 0 -8 0 12 -260097
-1 -1 1 1;
#X obj 927 910 dac~;
#X obj 180 411 tgl 35 0 empty sl_rec slaveloop_rec 0 -8 0 15 -258113
-1 -1 0 1;
#X obj 39 412 tgl 35 0 empty sl_on slaveloop_play 0 -8 0 12 -260097
-1 -1 0 1;
#X obj 271 426 bng 15 250 50 0 empty empty RESET 0 -7 0 10 -262144
-1 -1;
#X obj 77 138 led 32;
#X obj 73 492 *~;
#X obj 38 229 *~;
#X obj 189 655 tgl 35 0 empty sl_rec slaveloop_rec 0 -8 0 15 -258113
-1 -1 0 1;
#X obj 48 656 tgl 35 0 empty sl_on slaveloop_play 0 -8 0 12 -260097
-1 -1 0 1;
#X obj 280 670 bng 15 250 50 0 empty empty RESET 0 -7 0 10 -262144
-1 -1;
#X obj 81 737 *~;
#X obj 635 258 tgl 35 0 empty sl_rec slaveloop_rec 0 -8 0 15 -258113
-1 -1 0 1;
#X obj 494 259 tgl 35 0 empty sl_on slaveloop_play 0 -8 0 12 -260097
-1 -1 0 1;
#X obj 726 273 bng 15 250 50 0 empty empty RESET 0 -7 0 10 -262144
-1 -1;
#X obj 527 340 *~;
#X obj 215 138 led 64;
#X obj 223 419 led 65;
#X obj 83 425 led 33;
#X obj 92 669 led 34;
#X obj 232 662 led 66;
#X obj 538 272 led 35;
#X obj 680 268 led 67;
#N canvas 2080 328 450 300 array 0;
#N canvas 0 50 450 300 (subpatch) 0;
#X array masterloop 2.28e+06 float 2 black black;
#X coords 0 1 2.28e+06 -1 200 140 1;
#X restore 157 78 graph;
#X restore 75 22 pd array;
#X obj 27 67 send~ audioIn;
#X obj 922 875 freeverb~;
#X msg 1028 806 wet \$1;
#X msg 1086 804 dry \$1;
#X obj 1031 751 hsl 128 15 0 1 0 0 empty empty empty -2 -8 0 10 -262144
-1 -1 0 1;
#N canvas 1 80 450 300 inv 0;
#X obj 154 69 inlet;
#X obj 154 179 outlet;
#X msg 154 124 1;
#X obj 154 97 t b f;
#X obj 154 151 -;
#X connect 0 0 3 0;
#X connect 2 0 4 0;
#X connect 3 0 2 0;
#X connect 3 1 4 1;
#X connect 4 0 1 0;
#X restore 1073 786 pd inv;
#X floatatom 1134 804 5 0 0 0 - - -, f 5;
#X text 1019 735 dry;
#X text 1144 734 wet;
#X floatatom 1035 780 5 0 0 0 - - -, f 5;
#X msg 1231 817 freeze \$1;
#X obj 1237 789 tgl 15 0 empty empty empty 17 7 0 10 -262144 -1 -1
0 1;
#X obj 1253 757 sel 1;
#X text 353 35 Mark IJzerman 2018 mono in \, stereo out.;
#X text 149 88 1;
#X text 148 362 2;
#X text 156 619 3;
#X text 581 209 4;
#X text 1023 659 reverb;
#X obj 138 58 send~ drySignal;
#X obj 762 851 r~ drySignal;
#X obj 808 873 *~;
#X obj 761 786 catch~ audioOutL;
#X obj 878 784 catch~ audioOutR;
#X obj 192 475 fad 1;
#X obj 201 719 fad 2;
#X obj 647 322 fad 3;
#X obj 1101 666 loadbang;
#X msg 1101 710 0;
#X obj 47 553 throw~ audioOutL;
#X obj 172 554 throw~ audioOutR;
#X obj 130 524 fad 17;
#X obj 12 292 throw~ audioOutL;
#X obj 137 293 throw~ audioOutR;
#X obj 80 244 fad 16;
#X obj 74 826 throw~ audioOutL;
#X obj 199 827 throw~ audioOutR;
#X obj 157 797 fad 18;
#X obj 499 397 throw~ audioOutL;
#X obj 624 398 throw~ audioOutR;
#X obj 582 368 fad 19;
#X obj 103 799 panner;
#X obj 528 370 panner;
#X obj 41 263 panner;
#X obj 52 527 panner;
#X obj 903 19 led 44;
#X obj 761 86 sel 1;
#X obj 762 108 f;
#X obj 794 108 + 1;
#X obj 781 238 print;
#X obj 834 106 f;
#X obj 866 106 + 1;
#X obj 833 84 sel 0;
#X obj 759 174 pack f 0;
#X obj 831 172 pack f 1;
#X text 760 20 for foot pedal;
#X obj 931 151 tgl 15 0 empty empty empty 17 7 0 10 -262144 -1 -1 0
1;
#X obj 931 128 spigot;
#X msg 968 81 0;
#X msg 906 97 1;
#X obj 905 38 t b b b;
#X obj 979 47 loadbang;
#X obj 891 73 delay 250;
#X obj 932 171 != 1;
#X obj 275 93 r footrec-0;
#X msg 757 198 \; footrec-\$1 \$2;
#X obj 311 405 r footrec-1;
#X obj 322 640 r footrec-2;
#X obj 752 291 r footrec-3;
#N canvas 543 468 1288 779 saveArrays 0;
#X obj 82 32 ctlin;
#X msg 183 96 3;
#X obj 182 72 loadbang;
#N canvas 1850 459 450 300 mij.stream 0;
#X obj 30 44 inlet;
#X obj 138 42 inlet;
#X obj 136 92 route clear;
#X obj 66 230 outlet;
#X obj 199 129 route float;
#X obj 34 121 list append;
#X obj 51 182 list split \$1;
#X connect 0 0 5 0;
#X connect 1 0 2 0;
#X connect 2 0 5 1;
#X connect 2 1 4 0;
#X connect 4 0 6 1;
#X connect 5 0 6 0;
#X connect 6 0 3 0;
#X connect 6 0 5 1;
#X connect 6 2 5 1;
#X restore 91 121 pd mij.stream;
#X obj 83 73 swap;
#X obj 86 94 stripnote;
#X text 104 13 SAVING;
#X text 191 157 (trackleft - set - >);
#X obj 193 580 soundfiler;
#X msg 195 536 write -wave \$1 \$2;
#X obj 85 170 t b b;
#X obj 52 219 pack f f f f f f;
#X obj 33 295 t b a;
#X msg 241 389 \$2__\$1;
#X obj 240 368 pack f s;
#X obj 56 409 sel 1;
#X obj 65 347 t f f;
#X msg 27 455 masterloop;
#X msg 121 453 \$1-slaveloop;
#X obj 189 506 pack s s;
#X msg 49 242 /media/root/UNTITLED/\$1-\$2-\$3__\$4-\$5-\$6;
#X obj 537 248 f;
#X obj 557 227 r ml_len;
#X obj 301 330 cyclone/tosymbol;
#X obj 230 480 cyclone/tosymbol;
#X obj 152 198 time;
#X obj 32 321 cyclone/uzi 6;
#X obj 87 149 cyclone/match 62 60 58;
#X obj 53 200 date;
#X obj 60 269 t a b;
#X msg 538 274 \; masterloop resize \$1 \; 2-slaveloop resize \$1 \;
3-slaveloop resize \$1 \; 4-slaveloop resize \$1 \; 5-slaveloop resize
\$1 \; 6-slaveloop resize \$1 \;;
#X connect 0 0 4 0;
#X connect 0 1 4 1;
#X connect 1 0 3 1;
#X connect 2 0 1 0;
#X connect 3 0 27 0;
#X connect 4 0 5 0;
#X connect 4 1 5 1;
#X connect 5 0 3 0;
#X connect 9 0 8 0;
#X connect 10 0 28 0;
#X connect 10 1 25 0;
#X connect 11 0 20 0;
#X connect 12 0 26 0;
#X connect 12 1 23 0;
#X connect 13 0 19 0;
#X connect 14 0 13 0;
#X connect 15 0 17 0;
#X connect 15 1 18 0;
#X connect 16 0 14 0;
#X connect 16 1 15 0;
#X connect 17 0 24 0;
#X connect 18 0 24 0;
#X connect 19 0 9 0;
#X connect 20 0 29 0;
#X connect 21 0 30 0;
#X connect 22 0 21 1;
#X connect 23 0 14 1;
#X connect 24 0 19 1;
#X connect 25 0 11 3;
#X connect 25 1 11 4;
#X connect 25 2 11 5;
#X connect 26 2 16 0;
#X connect 27 0 10 0;
#X connect 28 0 11 0;
#X connect 28 1 11 1;
#X connect 28 2 11 2;
#X connect 29 0 12 0;
#X connect 29 1 21 0;
#X restore 144 23 pd saveArrays;
#X obj 70 462 slaveloop_recplay 2;
#X obj 79 706 slaveloop_recplay 3;
#X obj 525 309 slaveloop_recplay 4;
#X obj 93 208 fad 0;
#X floatatom 155 224 5 0 0 0 - - -, f 5;
#X obj 761 150 % 4;
#X obj 833 148 % 4;
#X obj 1027 698 fad 6;
#X obj 857 852 fad 7;
#X text 671 771 fripper;
#N canvas 304 451 1258 940 frippertronics 0;
#X text 154 901 rec;
#X obj 181 628 vd~ head;
#X obj 179 537 *~ 47;
#X obj 97 858 *~;
#X obj 187 894 dbtorms;
#X obj 104 441 *~;
#N canvas 1162 549 769 509 tapeloop 0;
#X obj 228 267 vd~ tape;
#X obj 228 299 *~ 0.005;
#X text 229 92 virtual stretching tape;
#X text 294 298 erasing head \, not perfectly aligned;
#X obj 228 342 *~, f 5;
#X obj 450 127 inlet;
#X msg 450 149 \$1 50;
#X obj 450 171 line~;
#X text 475 108 tape ""simulation"" amount;
#X obj 228 380 outlet~ feedback;
#X obj 227 165 inlet~ tapeloop;
#X obj 80 111 inlet~ tapespeed;
#X obj 229 212 delwrite~ tape 228340;
#X connect 0 0 1 0;
#X connect 1 0 4 0;
#X connect 4 0 9 0;
#X connect 5 0 6 0;
#X connect 6 0 7 0;
#X connect 7 0 4 1;
#X connect 10 0 12 0;
#X connect 11 0 0 0;
#X restore 101 771 pd tapeloop;
#N canvas 238 210 1036 663 tapespeedeq 0;
#X obj 488 123 loadbang;
#X obj 238 551 outlet;
#X obj 87 267 t f f f;
#X obj 87 292 * 21.7391;
#X obj 87 314 - 30;
#X obj 174 314 + 6.08696;
#X obj 174 292 * -3.90435;
#X obj 300 289 * -7742;
#X obj 300 311 + 20000;
#X obj 141 373 pack f f f;
#X msg 141 400 hsgain \$1 \, pk1gain \$2 \, lpfreq \$3;
#X obj 87 126 inlet speed;
#X text 596 132 base settings;
#X text 203 46 slower -> lowpass;
#X text 203 70 modelled after the first head of my re-150;
#X msg 489 160 gain 2.30705 \, lpres 0.7079 \, lpactive 1 \, hsres
1.99526 \, hsfreq 3701.87 \, hsactive 1 \, pk1res 1.49249 \, pk1freq
4472.96 \, pk1active 1 \, hpres 0.707946 \, hpactive 1 \, hpfreq 130
;
#X obj 260 202 tgl 15 0 empty empty playhead_filter 17 7 0 10 -262144
-1 -1 1 1;
#X msg 511 263 lpactive \$1 \, hsactive \$1 \, pk1active \$1 \, hp1active
\$1;
#X obj 258 137 loadbang;
#X msg 255 167 1;
#X connect 0 0 15 0;
#X connect 2 0 3 0;
#X connect 2 1 6 0;
#X connect 2 2 7 0;
#X connect 3 0 4 0;
#X connect 4 0 9 0;
#X connect 5 0 9 1;
#X connect 6 0 5 0;
#X connect 7 0 8 0;
#X connect 8 0 9 2;
#X connect 9 0 10 0;
#X connect 10 0 1 0;
#X connect 11 0 2 0;
#X connect 15 0 1 0;
#X connect 16 0 17 0;
#X connect 17 0 1 0;
#X connect 18 0 19 0;
#X connect 19 0 16 0;
#X restore 290 506 pd tapespeedeq;
#X obj 187 914 gain;
#X obj 94 936 tanh~;
#X obj 236 727 eq7.mmb~;
#N canvas 1242 198 1258 824 wow-flutter-etc~ 0;
#X obj 116 228 noise~;
#X obj 82 507 sig~ 1;
#X obj 209 577 +~;
#X obj 165 511 *~;
#X obj 439 369 pow 2;
#X obj 210 510 *~;
#X obj 270 510 *~;
#X obj 489 369 pow 2;
#X obj 539 369 pow 2;
#X obj 116 385 lop~ 0.1;
#X obj 116 407 lop~ 0.1;
#X obj 307 355 bp~ 50 0.707;
#X obj 440 345 * 1.5;
#X obj 490 345 * 0.3;
#X obj 540 345 * 0.3;
#X text 432 96 wow \, flutter \, noise;
#X obj 440 134 inlet;
#X obj 490 134 inlet;
#X obj 540 134 inlet;
#X obj 210 639 outlet~;
#X obj 208 355 bp~ 50 0.707;
#X obj 210 610 *~ 1;
#X obj 375 386 sig~;
#X obj 376 410 lop~ 0.1;
#X obj 449 395 sig~;
#X obj 450 419 lop~ 0.1;
#X obj 539 401 sig~;
#X obj 540 425 lop~ 0.1;
#X connect 0 0 9 0;
#X connect 0 0 11 0;
#X connect 0 0 20 0;
#X connect 1 0 2 0;
#X connect 2 0 21 0;
#X connect 3 0 2 1;
#X connect 4 0 22 0;
#X connect 5 0 2 1;
#X connect 6 0 2 1;
#X connect 7 0 24 0;
#X connect 8 0 26 0;
#X connect 9 0 10 0;
#X connect 10 0 3 0;
#X connect 11 0 6 0;
#X connect 12 0 4 0;
#X connect 13 0 7 0;
#X connect 14 0 8 0;
#X connect 16 0 12 0;
#X connect 17 0 13 0;
#X connect 18 0 14 0;
#X connect 20 0 5 0;
#X connect 21 0 19 0;
#X connect 22 0 23 0;
#X connect 23 0 3 1;
#X connect 24 0 25 0;
#X connect 25 0 5 1;
#X connect 26 0 27 0;
#X connect 27 0 6 1;
#X restore 227 383 pd wow-flutter-etc~;
#X obj 187 850 * 30;
#X obj 187 872 + 70;
#X obj 861 494 declare -path mmb;
#X obj 861 515 declare -path cyclone;
#X obj 181 31 vsl 15 128 0 1.2 0 0 intensity intensity intensity 0
-9 0 10 -262144 -1 -1 8683 1;
#X obj 628 34 vsl 15 128 0 1 0 0 wow wow wow 0 -9 0 10 -262144 -1 -1
1300 1;
#X obj 699 35 vsl 15 128 0.01 1 0 0 flutter flutter flutter 0 -9 0
10 -262144 -1 -1 0 1;
#X obj 758 34 vsl 15 128 0.01 1 0 0 dirt dirt dirt 0 -9 0 10 -262144
-1 -1 0 1;
#X obj 208 808 r intensity;
#X obj 191 352 r wow;
#X obj 231 353 r flutter;
#X obj 295 353 r dirt;
#X obj 113 706 r tapeloop_amount;
#X floatatom 290 458 5 0 0 0 - - -, f 5;
#X floatatom 244 842 5 0 0 0 - - -, f 5;
#X obj 64 345 sig~;
#X floatatom 64 288 5 0 0 0 - - -, f 5;
#X obj 58 226 loadbang;
#X obj 289 36 vsl 15 128 0.001 2 0 0 speed_eq speed_eq speed_eq 0 -9
0 10 -262144 -1 -1 11399 1;
#X obj 291 424 r speed_eq;
#X obj 91 314 +;
#X obj 112 291 t b f;
#X floatatom 124 246 5 0 0 0 - - -, f 5;
#X obj 934 33 vsl 15 128 0.01 200 0 0 tapeloop_amount tapeloop_amount
tapeloop_amount 0 -9 0 10 -262144 -1 -1 324 1;
#X obj 126 267 / 10;
#X obj 414 39 vsl 15 128 -100 100 0 0 pull_tape pull_tape pull_tape
0 -9 0 10 -262144 -1 -1 0 1;
#X obj 125 222 r pull_tape;
#X text 715 198 counter for when 6 seconds is up \, blink lights;
#X obj 862 535 declare -path RE-abs;
#X obj 867 251 loadbang;
#X obj 99 978 delwrite~ head 8000;
#X msg 59 249 100;
#X obj 55 380 lop~ 0.1;
#X obj 60 150 s intensity;
#X obj 226 233 s speed_eq;
#X obj 326 144 s pull_tape;
#X obj 331 79 - 0.5;
#X obj 343 113 * 200;
#X obj 572 73 s wow;
#X obj 466 180 s flutter;
#X obj 558 171 s dirt;
#X obj 788 95 s tapeloop_amount;
#X floatatom 654 199 5 0 0 0 - - -, f 5;
#X floatatom 492 155 5 0 0 0 - - -, f 5;
#X obj 469 118 / 50;
#X obj 557 148 / 20;
#X obj 241 202 * 2;
#X obj 61 36 fad 21;
#X obj 419 633 r~ audioIn;
#X floatatom 378 383 5 0 0 0 - - -, f 5;
#X obj 242 939 throw~ fromFripper;
#X msg 864 288 \; pull_tape 0 \; speed_eq 1 \; intensity 1 \; wow 0.8
\; flutter 0.033 \; dirt 0.01 \; tapeloop_amount 0.53 \;;
#X obj 66 86 * 0.2;
#X obj 821 50 * 50;
#N canvas 1 80 450 300 inv 0;
#X obj 154 69 inlet;
#X obj 154 179 outlet;
#X msg 154 124 1;
#X obj 154 97 t b f;
#X obj 154 151 -;
#X connect 0 0 3 0;
#X connect 2 0 4 0;
#X connect 3 0 2 0;
#X connect 3 1 4 1;
#X connect 4 0 1 0;
#X restore 221 153 pd inv;
#X floatatom 292 204 5 0 0 0 - - -, f 5;
#X obj 360 768 led 53;
#X obj 549 605 inlet~;
#X obj 70 118 + 0.8;
#X obj 96 901 *~;
#X obj 326 815 tgl 15 0 empty empty empty 17 7 0 10 -262144 -1 -1 1
1;
#X obj 418 791 loadbang;
#X obj 325 791 sel 1;
#X obj 315 853 line~;
#X msg 316 833 \$1 100;
#X obj 573 639 fad 4;
#X obj 418 674 *~;
#X connect 1 0 10 0;
#X connect 2 0 1 0;
#X connect 3 0 71 0;
#X connect 4 0 8 0;
#X connect 5 0 6 0;
#X connect 5 0 2 0;
#X connect 6 0 3 0;
#X connect 7 0 10 1;
#X connect 8 0 3 1;
#X connect 9 0 42 0;
#X connect 9 0 62 0;
#X connect 10 0 6 1;
#X connect 10 0 3 0;
#X connect 11 0 5 1;
#X connect 12 0 13 0;
#X connect 13 0 4 0;
#X connect 18 0 54 0;
#X connect 20 0 12 0;
#X connect 20 0 26 0;
#X connect 21 0 11 0;
#X connect 22 0 11 1;
#X connect 22 0 61 0;
#X connect 23 0 11 2;
#X connect 24 0 6 2;
#X connect 25 0 7 0;
#X connect 27 0 44 0;
#X connect 28 0 32 0;
#X connect 29 0 43 0;
#X connect 31 0 25 0;
#X connect 32 0 27 0;
#X connect 33 0 32 0;
#X connect 33 1 32 1;
#X connect 34 0 36 0;
#X connect 36 0 33 0;
#X connect 38 0 34 0;
#X connect 41 0 63 0;
#X connect 43 0 28 0;
#X connect 44 0 5 0;
#X connect 48 0 49 0;
#X connect 56 0 51 0;
#X connect 56 0 55 0;
#X connect 57 0 52 0;
#X connect 58 0 46 0;
#X connect 58 0 67 0;
#X connect 59 0 48 0;
#X connect 59 0 56 0;
#X connect 59 0 50 0;
#X connect 59 0 57 0;
#X connect 59 0 64 0;
#X connect 59 0 65 0;
#X connect 59 0 66 0;
#X connect 60 0 78 0;
#X connect 64 0 70 0;
#X connect 65 0 35 0;
#X connect 66 0 58 0;
#X connect 68 0 74 0;
#X connect 69 0 78 0;
#X connect 70 0 45 0;
#X connect 71 0 9 0;
#X connect 72 0 68 0;
#X connect 72 0 76 0;
#X connect 73 0 72 0;
#X connect 74 0 72 0;
#X connect 75 0 71 1;
#X connect 76 0 75 0;
#X connect 77 0 78 1;
#X connect 78 0 42 0;
#X restore 665 820 pd frippertronics;
#X obj 251 23 adc~ 3;
#X obj 19 11 adc~;
#X obj 1204 630 ctlin;
#X floatatom 1215 660 5 0 0 0 - - -, f 5;
#X obj 1223 726 led 38;
#X text 1037 954 - switch -12 & +12 with what is now pan?;
#X obj 559 850 catch~ fromFripper;
#X obj 619 892 *~;
#X obj 669 871 fad 5;
#X text 1031 970 - rebuild loop players to have a degree of imperfection
;
#X connect 1 0 0 0;
#X connect 1 0 19 0;
#X connect 2 0 10 0;
#X connect 3 0 2 0;
#X connect 3 0 8 0;
#X connect 5 0 20 0;
#X connect 5 0 97 1;
#X connect 6 0 21 0;
#X connect 6 0 97 0;
#X connect 7 0 97 2;
#X connect 8 0 3 0;
#X connect 9 0 71 0;
#X connect 10 0 70 0;
#X connect 11 0 23 0;
#X connect 11 0 98 1;
#X connect 12 0 22 0;
#X connect 12 0 98 0;
#X connect 13 0 98 2;
#X connect 14 0 68 0;
#X connect 15 0 25 0;
#X connect 15 0 99 1;
#X connect 16 0 24 0;
#X connect 16 0 99 0;
#X connect 17 0 99 2;
#X connect 18 0 69 0;
#X connect 19 0 1 0;
#X connect 20 0 5 0;
#X connect 21 0 6 0;
#X connect 22 0 12 0;
#X connect 23 0 11 0;
#X connect 24 0 16 0;
#X connect 25 0 15 0;
#X connect 28 0 4 0;
#X connect 28 1 4 1;
#X connect 29 0 28 0;
#X connect 30 0 28 0;
#X connect 31 0 29 0;
#X connect 31 0 32 0;
#X connect 31 0 36 0;
#X connect 32 0 30 0;
#X connect 32 0 33 0;
#X connect 37 0 28 0;
#X connect 38 0 37 0;
#X connect 38 0 112 0;
#X connect 39 0 38 0;
#X connect 47 0 48 0;
#X connect 48 0 28 0;
#X connect 48 0 28 1;
#X connect 49 0 28 0;
#X connect 49 0 107 0;
#X connect 50 0 28 1;
#X connect 50 0 107 0;
#X connect 51 0 9 1;
#X connect 52 0 14 1;
#X connect 53 0 18 1;
#X connect 54 0 55 0;
#X connect 55 0 31 0;
#X connect 58 0 71 1;
#X connect 61 0 70 1;
#X connect 64 0 68 1;
#X connect 67 0 69 1;
#X connect 68 0 62 0;
#X connect 68 1 63 0;
#X connect 69 0 65 0;
#X connect 69 1 66 0;
#X connect 70 0 59 0;
#X connect 70 1 60 0;
#X connect 71 0 56 0;
#X connect 71 1 57 0;
#X connect 72 0 87 0;
#X connect 73 0 74 0;
#X connect 74 0 75 0;
#X connect 74 0 102 0;
#X connect 75 0 74 1;
#X connect 77 0 78 0;
#X connect 77 0 103 0;
#X connect 78 0 77 1;
#X connect 79 0 77 0;
#X connect 80 0 92 0;
#X connect 81 0 92 0;
#X connect 83 0 90 0;
#X connect 84 0 83 0;
#X connect 85 0 84 1;
#X connect 86 0 84 1;
#X connect 87 0 89 0;
#X connect 87 1 85 0;
#X connect 87 2 84 0;
#X connect 88 0 86 0;
#X connect 89 0 86 0;
#X connect 90 0 73 0;
#X connect 90 0 79 0;
#X connect 91 0 1 0;
#X connect 92 0 76 0;
#X connect 93 0 5 0;
#X connect 94 0 11 0;
#X connect 95 0 15 0;
#X connect 97 0 9 0;
#X connect 97 1 5 0;
#X connect 97 2 6 0;
#X connect 98 0 14 0;
#X connect 98 1 11 0;
#X connect 98 2 12 0;
#X connect 99 0 18 0;
#X connect 99 1 15 0;
#X connect 99 2 16 0;
#X connect 100 0 10 1;
#X connect 101 0 10 1;
#X connect 102 0 80 0;
#X connect 103 0 81 0;
#X connect 104 0 31 0;
#X connect 105 0 48 1;
#X connect 108 0 27 0;
#X connect 108 0 46 0;
#X connect 109 0 27 0;
#X connect 109 0 46 0;
#X connect 109 1 27 0;
#X connect 109 1 46 0;
#X connect 110 1 111 0;
#X connect 112 0 39 0;
#X connect 114 0 115 0;
#X connect 115 0 28 0;
#X connect 115 0 28 1;
#X connect 116 0 115 1;
