#N canvas 0 51 450 300 10;
#X obj 267 24 inlet;
#N canvas 1 80 450 300 inv 0;
#X obj 154 69 inlet;
#X obj 154 179 outlet;
#X msg 154 124 1;
#X obj 154 97 t b f;
#X obj 154 151 -;
#X connect 0 0 3 0;
#X connect 2 0 4 0;
#X connect 3 0 2 0;
#X connect 3 1 4 1;
#X connect 4 0 1 0;
#X restore 108 56 pd inv;
#X obj 151 18 inlet~;
#X obj 124 96 *~;
#X obj 120 123 outlet~;
#X obj 182 122 outlet~;
#X obj 175 94 *~;
#X obj 332 39 loadbang;
#X obj 333 73 delay 100;
#X msg 332 110 0.5;
#X connect 0 0 1 0;
#X connect 0 0 6 0;
#X connect 1 0 3 0;
#X connect 2 0 3 1;
#X connect 2 0 6 1;
#X connect 3 0 4 0;
#X connect 6 0 5 0;
#X connect 7 0 8 0;
#X connect 8 0 9 0;
#X connect 9 0 6 0;
#X connect 9 0 1 0;
