#N canvas 1610 128 686 680 10;
#X obj 32 56 inlet;
#X obj 321 61 inlet;
#X text 27 30 play;
#X text 314 32 record;
#N canvas 0 50 450 300 (subpatch) 0;
#X array \$0-slaveloop 2.28e+06 float 2;
#X coords 0 1 2.28e+06 -1 200 140 1;
#X restore 469 34 graph;
#X obj 321 92 change;
#X obj 322 123 t f f;
#X obj 321 155 sel 1 0;
#X obj 404 470 tabwrite~ \$0-slaveloop;
#X obj 288 213 t b b;
#X obj 525 209 t f f;
#X obj 525 260 line~;
#X obj 510 289 *~;
#X obj 456 249 r~ audioIn;
#N canvas 185 178 252 185 limiter 0;
#X obj 24 22 inlet~;
#X msg 121 85 limit 100;
#X obj 121 21 loadbang;
#X obj 24 60 z~ 64;
#X obj 24 169 *~;
#X obj 24 200 outlet~;
#X obj 121 113 limiter~ 10;
#X connect 0 0 3 0;
#X connect 0 0 6 0;
#X connect 1 0 6 0;
#X connect 2 0 1 0;
#X connect 3 0 4 0;
#X connect 4 0 5 0;
#X connect 6 0 4 1;
#X restore 510 315 pd limiter;
#X obj 600 316 spigot;
#X obj 600 246 r newcycle;
#X obj 376 297 t b b;
#X msg 375 329 stop;
#X msg 417 327 1;
#X obj 282 266 r newcycle;
#X obj 284 293 timer;
#X obj 284 316 t f b;
#X obj 302 348 samplerate~;
#X obj 302 370 / 1000;
#X obj 284 396 *;
#X obj 264 429 i;
#X msg 263 450 start \$1;
#X text 389 24 clear;
#X obj 409 65 inlet;
#X obj 365 47 r clearsloop;
#X obj 180 114 r newcycle;
#X obj 42 149 tabplay~ \$0-slaveloop;
#X obj 27 182 *~;
#X obj 414 355 outlet;
#X msg 104 60 0;
#X obj 166 68 outlet;
#X obj 40 238 *~;
#X obj 181 137 t b b b;
#X obj 96 229 line~;
#X obj 186 182 delay;
#X obj 233 142 r ml_len_ms;
#X obj 68 341 outlet~;
#X obj 412 135 s \$0-slaveloop;
#X msg 386 96 const 0;
#X obj 526 235 pack 0 50;
#X msg 131 183 1 50;
#X obj 228 166 - 50;
#X msg 178 214 0 50;
#X obj 387 186 pack 0 50;
#X obj 376 246 delay 50;
#X connect 0 0 33 0;
#X connect 0 0 35 0;
#X connect 1 0 5 0;
#X connect 5 0 6 0;
#X connect 6 0 7 0;
#X connect 6 1 10 0;
#X connect 7 0 9 0;
#X connect 7 1 49 0;
#X connect 7 1 50 0;
#X connect 9 0 26 0;
#X connect 9 1 21 1;
#X connect 10 0 45 0;
#X connect 10 1 15 1;
#X connect 11 0 12 1;
#X connect 12 0 14 0;
#X connect 13 0 12 0;
#X connect 14 0 8 0;
#X connect 15 0 8 0;
#X connect 16 0 15 0;
#X connect 17 0 18 0;
#X connect 17 1 19 0;
#X connect 18 0 8 0;
#X connect 19 0 34 0;
#X connect 20 0 21 0;
#X connect 21 0 22 0;
#X connect 22 0 25 0;
#X connect 22 1 23 0;
#X connect 23 0 24 0;
#X connect 24 0 25 1;
#X connect 25 0 26 1;
#X connect 26 0 27 0;
#X connect 27 0 8 0;
#X connect 29 0 44 0;
#X connect 30 0 44 0;
#X connect 31 0 38 0;
#X connect 32 0 33 1;
#X connect 33 0 37 0;
#X connect 35 0 36 0;
#X connect 37 0 42 0;
#X connect 38 0 32 0;
#X connect 38 1 46 0;
#X connect 38 2 40 0;
#X connect 39 0 37 1;
#X connect 40 0 48 0;
#X connect 41 0 47 0;
#X connect 44 0 43 0;
#X connect 45 0 11 0;
#X connect 46 0 39 0;
#X connect 47 0 40 1;
#X connect 48 0 39 0;
#X connect 49 0 11 0;
#X connect 50 0 17 0;
